<svg viewBox="0 0 1200 330" xmlns="http://www.w3.org/2000/svg" role="img" aria-label="getreceipts — catch your AI coding agent claiming work it didn't do">
  <defs>
    <linearGradient id="bg" x1="0" y1="0" x2="0" y2="1">
      <stop offset="0" stop-color="#161b22"/>
      <stop offset="1" stop-color="#0d1117"/>
    </linearGradient>
  </defs>
  <rect x="1" y="1" width="1198" height="328" rx="16" fill="url(#bg)" stroke="#30363d" stroke-width="1"/>

  <g transform="translate(575,50)">
    <path d="M6 0 H44 a6 6 0 0 1 6 6 V52 l-5 8 l-5 -8 l-5 8 l-5 -8 l-5 8 l-5 -8 l-5 8 l-5 -8 l-5 8 l-5 -8 V6 a6 6 0 0 1 6 -6 Z" fill="#e6edf3"/>
    <rect x="12" y="15" width="26" height="5" rx="2.5" fill="#9aa5b1"/>
    <rect x="12" y="27" width="18" height="5" rx="2.5" fill="#9aa5b1"/>
    <path d="M13 42 l6 6 l15 -18" fill="none" stroke="#2ea043" stroke-width="5" stroke-linecap="round" stroke-linejoin="round"/>
  </g>

  <text x="600" y="202" text-anchor="middle" font-family="ui-monospace, SFMono-Regular, Menlo, Consolas, monospace" font-size="66" font-weight="700" letter-spacing="-1" fill="#f0f6fc">getreceipts</text>

  <rect x="545" y="221" width="110" height="4" rx="2" fill="#2ea043"/>

  <text x="600" y="262" text-anchor="middle" font-family="-apple-system, BlinkMacSystemFont, 'Segoe UI', Helvetica, Arial, sans-serif" font-size="25" fill="#adbac7">Catch your AI coding agent claiming work it didn't do.</text>

  <text x="600" y="298" text-anchor="middle" font-family="ui-monospace, SFMono-Regular, Menlo, Consolas, monospace" font-size="16" fill="#6e7681">deterministic · read-only · zero-config · no LLM</text>
</svg>
